<?xml version="1.0" encoding="UTF-8" standalone="no"?>
<svg
   xmlns:dc="http://purl.org/dc/elements/1.1/"
   xmlns:cc="http://creativecommons.org/ns#"
   xmlns:rdf="http://www.w3.org/1999/02/22-rdf-syntax-ns#"
   xmlns:svg="http://www.w3.org/2000/svg"
   xmlns="http://www.w3.org/2000/svg"
   viewBox="0 0 758.66669 152"
   height="152"
   width="758.66669"
   xml:space="preserve"
   id="svg2"
   version="1.1"><metadata
     id="metadata8"><rdf:RDF><cc:Work
         rdf:about=""><dc:format>image/svg+xml</dc:format><dc:type
           rdf:resource="http://purl.org/dc/dcmitype/StillImage" /></cc:Work></rdf:RDF></metadata><defs
     id="defs6"><linearGradient
       id="linearGradient28"
       spreadMethod="pad"
       gradientTransform="matrix(1.000517,0,0,-1.001174,-190.39184,354.78506)"
       gradientUnits="userSpaceOnUse"
       y2="278.04999"
       x2="697.96997"
       y1="278.04999"
       x1="315.92999"><stop
         id="stop24"
         offset="0"
         style="stop-opacity:1;stop-color:#2351ff" /><stop
         id="stop26"
         offset="1"
         style="stop-opacity:1;stop-color:#00dfff" /></linearGradient><linearGradient
       id="linearGradient46"
       spreadMethod="pad"
       gradientTransform="matrix(1.000517,0,0,-1.001174,-190.39184,354.78506)"
       gradientUnits="userSpaceOnUse"
       y2="278.04999"
       x2="697.96997"
       y1="278.04999"
       x1="315.92999"><stop
         id="stop42"
         offset="0"
         style="stop-opacity:1;stop-color:#2351ff" /><stop
         id="stop44"
         offset="1"
         style="stop-opacity:1;stop-color:#00dfff" /></linearGradient><linearGradient
       id="linearGradient64"
       spreadMethod="pad"
       gradientTransform="matrix(1.000517,0,0,-1.001174,-190.39184,354.78506)"
       gradientUnits="userSpaceOnUse"
       y2="278.04999"
       x2="697.96997"
       y1="278.04999"
       x1="315.92999"><stop
         id="stop60"
         offset="0"
         style="stop-opacity:1;stop-color:#2351ff" /><stop
         id="stop62"
         offset="1"
         style="stop-opacity:1;stop-color:#00dfff" /></linearGradient><linearGradient
       id="linearGradient82"
       spreadMethod="pad"
       gradientTransform="matrix(1.000517,0,0,-1.001174,-190.39184,354.78506)"
       gradientUnits="userSpaceOnUse"
       y2="278.04999"
       x2="697.96997"
       y1="278.04999"
       x1="315.92999"><stop
         id="stop78"
         offset="0"
         style="stop-opacity:1;stop-color:#2351ff" /><stop
         id="stop80"
         offset="1"
         style="stop-opacity:1;stop-color:#00dfff" /></linearGradient><linearGradient
       id="linearGradient100"
       spreadMethod="pad"
       gradientTransform="matrix(1.000517,0,0,-1.001174,-190.39184,354.78506)"
       gradientUnits="userSpaceOnUse"
       y2="278.04999"
       x2="697.96997"
       y1="278.04999"
       x1="315.92999"><stop
         id="stop96"
         offset="0"
         style="stop-opacity:1;stop-color:#2351ff" /><stop
         id="stop98"
         offset="1"
         style="stop-opacity:1;stop-color:#00dfff" /></linearGradient><linearGradient
       id="linearGradient118"
       spreadMethod="pad"
       gradientTransform="matrix(1.000517,0,0,-1.001174,-190.39184,354.78506)"
       gradientUnits="userSpaceOnUse"
       y2="278.04999"
       x2="697.96997"
       y1="278.04999"
       x1="315.92999"><stop
         id="stop114"
         offset="0"
         style="stop-opacity:1;stop-color:#2351ff" /><stop
         id="stop116"
         offset="1"
         style="stop-opacity:1;stop-color:#00dfff" /></linearGradient><linearGradient
       id="linearGradient136"
       spreadMethod="pad"
       gradientTransform="matrix(1.000517,0,0,-1.001174,-190.39184,354.78506)"
       gradientUnits="userSpaceOnUse"
       y2="278.04999"
       x2="697.96997"
       y1="278.04999"
       x1="315.92999"><stop
         id="stop132"
         offset="0"
         style="stop-opacity:1;stop-color:#2351ff" /><stop
         id="stop134"
         offset="1"
         style="stop-opacity:1;stop-color:#00dfff" /></linearGradient><linearGradient
       id="linearGradient154"
       spreadMethod="pad"
       gradientTransform="matrix(1.000517,0,0,-1.001174,-190.39184,354.78506)"
       gradientUnits="userSpaceOnUse"
       y2="278.04999"
       x2="697.96997"
       y1="278.04999"
       x1="315.92999"><stop
         id="stop150"
         offset="0"
         style="stop-opacity:1;stop-color:#2351ff" /><stop
         id="stop152"
         offset="1"
         style="stop-opacity:1;stop-color:#00dfff" /></linearGradient></defs><g
     transform="matrix(1.3333333,0,0,1.3333333,0,3.8e-6)"
     id="g10"><g
       id="g12"><g
         id="g14"><g
           id="g16"><g
             id="g22"><path
               id="path30"
               style="fill:url(#linearGradient28);fill-rule:evenodd;stroke:none"
               d="m 478.574,31.098 c -1.824,0 -3.601,0.324 -5.336,0.988 -1.73,0.668 -3.308,1.566 -4.746,2.711 -1.437,1.144 -2.687,2.488 -3.758,4.019 -1.066,1.551 -1.855,3.204 -2.347,5 h 32.84 c -0.497,-1.89 -1.239,-3.605 -2.243,-5.152 -1.004,-1.562 -2.226,-2.91 -3.648,-4.023 -1.422,-1.129 -3.047,-1.996 -4.871,-2.614 -1.824,-0.621 -3.789,-0.929 -5.891,-0.929 z m 20.594,41.851 c -2.723,2.336 -5.691,4.176 -8.922,5.524 -3.23,1.343 -6.785,2.011 -10.652,2.011 -4.176,0 -8.133,-0.789 -11.875,-2.367 -3.742,-1.578 -7.02,-3.746 -9.832,-6.5 -2.813,-2.769 -5.039,-5.988 -6.696,-9.683 -1.652,-3.715 -2.488,-7.692 -2.488,-11.977 0,-2.754 0.34,-5.414 1.02,-7.984 0.679,-2.567 1.656,-4.981 2.906,-7.223 1.254,-2.246 2.769,-4.301 4.562,-6.176 1.793,-1.871 3.801,-3.48 6.016,-4.808 2.211,-1.332 4.605,-2.352 7.188,-3.082 2.582,-0.727 5.304,-1.098 8.179,-1.098 2.352,0 4.668,0.281 6.957,0.852 2.289,0.574 4.469,1.394 6.524,2.445 2.058,1.051 3.976,2.32 5.769,3.82 1.793,1.5 3.371,3.203 4.731,5.09 1.855,2.602 3.215,5.402 4.082,8.402 0.867,3 1.297,6.328 1.297,9.981 0,0.894 -0.032,1.636 -0.106,2.242 -0.078,0.602 -0.281,1.098 -0.59,1.469 -0.308,0.371 -0.773,0.633 -1.39,0.804 -0.618,0.172 -1.485,0.262 -2.598,0.262 h -41.141 c 0.399,2.215 1.172,4.195 2.301,5.895 1.129,1.718 2.461,3.156 4.004,4.347 1.547,1.192 3.234,2.09 5.059,2.696 1.824,0.601 3.648,0.894 5.472,0.894 1.391,0 2.735,-0.137 4.02,-0.418 1.285,-0.277 2.473,-0.648 3.586,-1.113 1.113,-0.465 2.148,-1.004 3.094,-1.609 0.941,-0.602 1.761,-1.223 2.472,-1.872 0,-0.031 0.016,-0.046 0.047,-0.046 0.371,-0.34 0.727,-0.618 1.066,-0.821 0.34,-0.199 0.696,-0.293 1.067,-0.293 0.281,0 0.605,0.094 0.961,0.278 0.355,0.187 0.695,0.496 1.035,0.929 0.836,1.02 1.547,1.871 2.133,2.551 0.586,0.684 1.066,1.254 1.437,1.719 0.371,0.465 0.649,0.867 0.821,1.207 0.171,0.34 0.246,0.695 0.246,1.035 0,0.867 -0.586,1.75 -1.762,2.617" /></g></g></g><g
         id="g32"><g
           id="g34"><g
             id="g40"><path
               id="path48"
               style="fill:url(#linearGradient46);stroke:none"
               d="m 393.676,49.816 c 0,2.493 0.429,4.829 1.297,7.059 0.867,2.211 2.07,4.145 3.617,5.832 1.531,1.668 3.355,2.984 5.441,3.961 2.074,0.973 4.364,1.469 6.836,1.469 2.426,0 4.731,-0.481 6.895,-1.438 2.164,-0.961 4.05,-2.261 5.644,-3.887 1.61,-1.621 2.891,-3.527 3.836,-5.691 0.942,-2.168 1.438,-4.457 1.5,-6.887 v -0.742 c -0.062,-2.414 -0.558,-4.703 -1.5,-6.867 -0.945,-2.168 -2.226,-4.07 -3.836,-5.727 -1.594,-1.64 -3.48,-2.937 -5.644,-3.898 -2.164,-0.957 -4.469,-1.438 -6.895,-1.438 -2.472,0 -4.762,0.497 -6.836,1.469 -2.086,0.977 -3.91,2.289 -5.441,3.961 -1.547,1.688 -2.75,3.621 -3.617,5.832 -0.868,2.231 -1.297,4.551 -1.297,6.992 z m 34.183,25.469 c 0.153,-0.558 0.231,-1.207 0.231,-1.965 0,-0.758 0.031,-1.457 0.094,-2.105 -1.114,1.176 -2.289,2.273 -3.539,3.312 -1.254,1.02 -2.614,1.918 -4.067,2.676 -1.453,0.758 -3.031,1.359 -4.73,1.793 -1.703,0.434 -3.543,0.652 -5.524,0.652 -2.781,0 -5.441,-0.339 -7.992,-1.023 -2.551,-0.68 -4.934,-1.656 -7.129,-2.922 -2.195,-1.285 -4.187,-2.816 -5.98,-4.613 -1.797,-1.793 -3.325,-3.789 -4.61,-5.985 -1.281,-2.214 -2.273,-4.597 -2.968,-7.164 -0.696,-2.57 -1.051,-5.277 -1.051,-8.093 0,-2.786 0.355,-5.493 1.051,-8.09 0.695,-2.598 1.687,-5.028 2.968,-7.274 1.285,-2.242 2.813,-4.3 4.625,-6.156 1.793,-1.855 3.785,-3.449 5.981,-4.766 2.195,-1.316 4.578,-2.335 7.129,-3.062 2.55,-0.727 5.226,-1.098 8.007,-1.098 1.981,0 3.852,0.2 5.598,0.618 1.746,0.418 3.387,1.023 4.918,1.796 1.531,0.774 2.969,1.684 4.297,2.739 1.332,1.05 2.551,2.195 3.664,3.433 0.125,-0.836 0.25,-1.656 0.356,-2.461 0.109,-0.804 0.203,-1.625 0.292,-2.461 0.188,-0.863 0.465,-1.546 0.821,-2.023 0.355,-0.481 1.019,-0.715 2.011,-0.715 1.02,0 2.04,0.016 3.047,0.047 1.004,0.031 2.008,0.047 3.028,0.047 0.711,0 1.347,0.246 1.886,0.742 0.543,0.496 0.805,1.145 0.805,1.949 v 47.344 c 0,5.074 -0.82,9.469 -2.457,13.199 -1.641,3.727 -3.867,6.821 -6.68,9.282 -2.812,2.46 -6.078,4.3 -9.804,5.507 -3.723,1.207 -7.684,1.809 -11.856,1.809 -1.765,0 -3.527,-0.152 -5.304,-0.449 -1.778,-0.293 -3.528,-0.711 -5.227,-1.25 -1.699,-0.543 -3.324,-1.207 -4.871,-1.996 -1.547,-0.805 -2.953,-1.688 -4.219,-2.692 -0.402,-0.25 -0.726,-0.543 -0.992,-0.898 -0.262,-0.356 -0.402,-0.805 -0.402,-1.332 0,-0.246 0.031,-0.512 0.093,-0.774 0.063,-0.261 0.219,-0.554 0.465,-0.914 l 3.481,-5.058 c 0.34,-0.403 0.648,-0.711 0.925,-0.911 0.278,-0.203 0.586,-0.296 0.93,-0.296 0.246,0.031 0.524,0.093 0.848,0.187 0.324,0.094 0.664,0.277 1.008,0.555 0.742,0.652 1.652,1.191 2.75,1.64 1.097,0.45 2.242,0.821 3.433,1.118 1.192,0.293 2.363,0.507 3.555,0.632 1.191,0.125 2.258,0.184 3.184,0.184 2.273,0 4.468,-0.293 6.558,-0.879 2.07,-0.59 3.926,-1.441 5.551,-2.539 1.621,-1.113 2.953,-2.461 3.988,-4.023 1.035,-1.579 1.637,-3.34 1.824,-5.274" /></g></g></g><g
         id="g50"><g
           id="g52"><g
             id="g58"><path
               id="path66"
               style="fill:url(#linearGradient64);stroke:none"
               d="m 324.926,49.941 c 0,2.477 0.433,4.813 1.297,7.024 0.867,2.215 2.074,4.164 3.617,5.832 1.531,1.672 3.355,2.988 5.445,3.961 2.07,0.976 4.36,1.472 6.832,1.472 2.488,0 4.84,-0.496 7.004,-1.472 2.18,-0.973 4.082,-2.289 5.676,-3.961 1.605,-1.668 2.875,-3.617 3.805,-5.832 0.925,-2.211 1.39,-4.547 1.39,-7.024 0,-2.445 -0.465,-4.781 -1.39,-6.992 -0.93,-2.215 -2.2,-4.148 -3.805,-5.816 -1.594,-1.672 -3.496,-3.004 -5.676,-3.992 -2.164,-0.993 -4.516,-1.485 -7.004,-1.485 -2.472,0 -4.762,0.492 -6.832,1.485 -2.09,0.988 -3.914,2.32 -5.445,3.992 -1.543,1.668 -2.75,3.601 -3.617,5.816 -0.864,2.211 -1.297,4.547 -1.297,6.992 z m 48.238,26.782 c 0,0.558 -0.125,1.007 -0.355,1.363 -0.231,0.355 -0.528,0.633 -0.899,0.836 -0.371,0.199 -0.801,0.34 -1.281,0.414 -0.481,0.078 -0.988,0.125 -1.516,0.125 h -5.812 c -1.008,0 -1.688,-0.262 -2.074,-0.789 -0.387,-0.527 -0.68,-1.192 -0.864,-1.996 l -0.281,-3.93 c -1.082,1.082 -2.27,2.106 -3.586,3.047 -1.312,0.961 -2.734,1.781 -4.25,2.477 -1.516,0.695 -3.125,1.238 -4.824,1.625 -1.703,0.386 -3.449,0.589 -5.242,0.589 -2.782,0 -5.457,-0.375 -8.039,-1.101 -2.582,-0.727 -5.012,-1.746 -7.27,-3.063 -2.254,-1.312 -4.297,-2.89 -6.137,-4.75 -1.839,-1.871 -3.418,-3.929 -4.73,-6.187 -1.316,-2.258 -2.336,-4.688 -3.063,-7.289 -0.726,-2.598 -1.097,-5.305 -1.097,-8.137 0,-2.816 0.371,-5.523 1.097,-8.121 0.727,-2.602 1.747,-5.031 3.063,-7.289 1.312,-2.258 2.891,-4.317 4.73,-6.156 1.84,-1.84 3.883,-3.418 6.137,-4.735 2.258,-1.316 4.688,-2.336 7.27,-3.062 2.582,-0.727 5.257,-1.102 8.039,-1.102 1.98,0 3.863,0.203 5.66,0.621 1.793,0.418 3.476,1.004 5.039,1.762 1.562,0.762 3,1.672 4.328,2.738 1.332,1.071 2.535,2.246 3.617,3.516 l 0.653,-5 c 0.152,-0.555 0.308,-1.02 0.445,-1.375 0.14,-0.356 0.312,-0.652 0.512,-0.867 0.203,-0.219 0.464,-0.356 0.773,-0.434 0.309,-0.078 0.695,-0.125 1.16,-0.125 h 4.653 c 0.496,0 0.992,0.047 1.484,0.141 0.496,0.093 0.961,0.23 1.359,0.433 0.403,0.2 0.715,0.496 0.946,0.852 0.23,0.355 0.355,0.789 0.355,1.312 z" /></g></g></g><g
         id="g68"><g
           id="g70"><g
             id="g76"><path
               id="path84"
               style="fill:url(#linearGradient82);stroke:none"
               d="m 252.078,23.207 c 0,-0.434 0.184,-0.898 0.555,-1.391 0.371,-0.496 0.726,-0.804 1.066,-0.929 0.25,-0.219 0.637,-0.34 1.129,-0.356 0.496,-0.015 0.961,-0.015 1.391,-0.015 h 4.703 c 0.894,0 1.558,0.293 1.992,0.882 0.434,0.586 0.742,1.239 0.898,1.95 l 0.508,4.902 c 0.711,-1.051 1.578,-2.086 2.614,-3.125 1.05,-1.02 2.273,-1.934 3.695,-2.738 1.422,-0.821 3.047,-1.469 4.887,-1.965 1.824,-0.496 3.882,-0.742 6.168,-0.742 3.648,0 6.914,0.664 9.757,1.98 2.844,1.317 5.243,3.11 7.188,5.399 1.965,2.289 3.433,5 4.437,8.093 1.008,3.094 1.516,6.418 1.516,9.977 v 30.992 c 0,1.113 -0.262,1.949 -0.789,2.504 -0.523,0.559 -1.281,0.836 -2.285,0.836 h -7.067 c -1.253,0 -2.074,-0.231 -2.488,-0.695 -0.418,-0.465 -0.637,-1.286 -0.637,-2.461 v -30.91 c 0,-1.641 -0.277,-3.25 -0.836,-4.813 -0.554,-1.562 -1.359,-2.957 -2.425,-4.191 -1.067,-1.239 -2.395,-2.231 -3.973,-2.973 -1.578,-0.742 -3.402,-1.113 -5.473,-1.113 -1.421,0 -2.89,0.277 -4.421,0.851 -1.532,0.571 -2.938,1.391 -4.208,2.446 -1.265,1.05 -2.32,2.32 -3.152,3.82 -0.836,1.5 -1.269,3.203 -1.301,5.09 V 74.59 c 0,0.586 -0.031,1.176 -0.093,1.762 -0.059,0.589 -0.2,1.113 -0.403,1.578 -0.199,0.465 -0.476,0.836 -0.847,1.113 -0.372,0.281 -0.868,0.418 -1.454,0.418 h -7.668 c -1.039,0 -1.781,-0.246 -2.257,-0.727 -0.481,-0.48 -0.727,-1.16 -0.727,-2.058 z" /></g></g></g><g
         id="g86"><g
           id="g88"><g
             id="g94"><path
               id="path102"
               style="fill:url(#linearGradient100);stroke:none"
               d="M 230.828,2.801 C 230.828,0.93 231.742,0 233.582,0 h 7.809 c 0.879,0 1.574,0.23 2.101,0.695 0.528,0.465 0.789,1.16 0.789,2.106 V 9.73 c 0,0.711 -0.246,1.395 -0.742,2.028 -0.496,0.637 -1.191,0.961 -2.101,0.961 h -7.809 c -1.871,0 -2.801,-0.992 -2.801,-2.989 z" /></g></g></g><g
         id="g104"><g
           id="g106"><g
             id="g112"><path
               id="path120"
               style="fill:url(#linearGradient118);stroke:none"
               d="m 230.828,23.348 c 0,-0.805 0.234,-1.485 0.695,-2.028 0.465,-0.543 1.145,-0.804 2.059,-0.804 h 7.715 c 0.34,0 0.695,0.062 1.051,0.199 0.355,0.14 0.679,0.344 0.961,0.605 0.277,0.262 0.507,0.571 0.695,0.914 0.184,0.34 0.277,0.711 0.277,1.114 v 53.328 c 0,1.859 -0.972,2.785 -2.937,2.785 h -7.715 c -1.871,0 -2.801,-0.926 -2.801,-2.785 z" /></g></g></g><g
         id="g122"><g
           id="g124"><g
             id="g130"><path
               id="path138"
               style="fill:url(#linearGradient136);stroke:none"
               d="m 175.324,50.082 c 0,2.477 0.434,4.813 1.301,7.023 0.867,2.211 2.07,4.145 3.617,5.786 1.531,1.64 3.371,2.941 5.488,3.898 2.102,0.961 4.422,1.441 6.926,1.441 2.43,0 4.703,-0.48 6.774,-1.441 2.086,-0.957 3.898,-2.258 5.394,-3.898 1.516,-1.641 2.707,-3.575 3.559,-5.786 0.847,-2.21 1.265,-4.546 1.265,-7.023 0,-2.445 -0.418,-4.781 -1.265,-7.008 -0.852,-2.23 -2.043,-4.195 -3.559,-5.879 -1.496,-1.687 -3.308,-3.035 -5.394,-4.039 -2.071,-1.008 -4.344,-1.5 -6.774,-1.5 -2.504,0 -4.824,0.492 -6.926,1.5 -2.117,1.004 -3.957,2.352 -5.488,4.039 -1.547,1.684 -2.75,3.649 -3.617,5.879 -0.867,2.227 -1.301,4.563 -1.301,7.008 z m -13.078,0.016 c 0,-2.817 0.356,-5.524 1.082,-8.141 0.727,-2.629 1.762,-5.059 3.094,-7.316 1.328,-2.258 2.922,-4.317 4.777,-6.157 1.84,-1.843 3.895,-3.422 6.153,-4.734 2.257,-1.316 4.683,-2.336 7.25,-3.066 2.582,-0.727 5.289,-1.098 8.101,-1.098 2.77,0 5.461,0.371 8.055,1.098 2.597,0.73 5.012,1.75 7.254,3.066 2.242,1.312 4.297,2.891 6.136,4.734 1.856,1.84 3.45,3.899 4.778,6.157 1.332,2.257 2.367,4.687 3.094,7.316 0.726,2.617 1.082,5.324 1.082,8.141 0,2.832 -0.356,5.539 -1.082,8.136 -0.727,2.598 -1.762,5.028 -3.094,7.274 -1.328,2.242 -2.922,4.285 -4.778,6.156 -1.839,1.856 -3.894,3.434 -6.136,4.75 -2.242,1.316 -4.657,2.336 -7.254,3.063 -2.594,0.726 -5.285,1.097 -8.055,1.097 -2.812,0 -5.519,-0.371 -8.101,-1.097 -2.567,-0.727 -4.993,-1.747 -7.25,-3.063 -2.258,-1.316 -4.313,-2.894 -6.153,-4.75 -1.855,-1.871 -3.449,-3.914 -4.777,-6.156 -1.332,-2.246 -2.367,-4.676 -3.094,-7.274 -0.726,-2.597 -1.082,-5.304 -1.082,-8.136" /></g></g></g><g
         id="g140"><g
           id="g142"><g
             id="g148"><path
               id="path156"
               style="fill:url(#linearGradient154);stroke:none"
               d="m 152.867,64.051 c 0.528,-0.34 0.973,-0.555 1.328,-0.633 0.356,-0.078 0.653,-0.109 0.899,-0.109 0.527,0.031 0.972,0.308 1.344,0.836 l 1.113,1.531 3.293,4.687 c 0.156,0.219 0.281,0.434 0.371,0.668 0.094,0.231 0.14,0.446 0.14,0.633 0,0.496 -0.171,0.93 -0.511,1.316 -0.34,0.387 -0.789,0.79 -1.344,1.192 -2.629,1.918 -5.457,3.465 -8.504,4.64 -3.047,1.176 -6.402,1.762 -10.051,1.762 -2.75,0 -5.41,-0.371 -7.992,-1.097 -2.582,-0.727 -5.008,-1.747 -7.25,-3.063 -2.242,-1.316 -4.285,-2.894 -6.156,-4.734 -1.856,-1.856 -3.461,-3.899 -4.809,-6.157 -1.359,-2.277 -2.394,-4.703 -3.121,-7.304 -0.726,-2.598 -1.097,-5.321 -1.097,-8.137 0,-2.816 0.371,-5.539 1.097,-8.141 0.727,-2.597 1.762,-5.027 3.121,-7.3 1.348,-2.258 2.953,-4.301 4.809,-6.157 1.871,-1.843 3.914,-3.422 6.156,-4.734 2.242,-1.316 4.668,-2.336 7.25,-3.066 2.582,-0.727 5.242,-1.098 7.992,-1.098 3.434,0 6.68,0.527 9.743,1.578 3.062,1.055 5.781,2.477 8.164,4.27 l -0.047,-0.043 c 0.433,0.429 0.867,0.804 1.281,1.129 0.418,0.324 0.621,0.835 0.621,1.515 0,0.184 0,0.403 -0.016,0.649 -0.015,0.25 -0.109,0.48 -0.265,0.695 l -3.801,5.805 c -0.621,0.925 -1.301,1.39 -2.043,1.39 -0.523,0 -1.113,-0.262 -1.762,-0.789 -1.578,-1.332 -3.418,-2.414 -5.519,-3.25 -2.102,-0.832 -4.266,-1.25 -6.492,-1.25 -2.414,0 -4.672,0.508 -6.789,1.516 -2.118,1.004 -3.989,2.367 -5.598,4.082 -1.606,1.734 -2.875,3.73 -3.801,6.004 -0.93,2.289 -1.394,4.687 -1.394,7.195 0,2.566 0.464,4.996 1.394,7.254 0.926,2.277 2.195,4.242 3.785,5.91 1.594,1.672 3.449,3.004 5.582,3.977 2.133,0.976 4.407,1.472 6.821,1.472 2.629,0 4.898,-0.465 6.816,-1.379 1.918,-0.914 3.664,-1.996 5.242,-3.265" /></g></g></g><path
         id="path158"
         style="fill:#00dfff;fill-opacity:1;fill-rule:nonzero;stroke:none"
         d="m 461.605,88.195 c 0.473,0 0.715,0.192 0.715,0.578 0,0.059 -0.015,0.153 -0.043,0.293 l -0.691,3.309 c -0.066,0.281 -0.207,0.492 -0.41,0.648 -0.207,0.153 -0.446,0.227 -0.707,0.227 h -2.875 l -2.637,12.445 c -0.098,0.528 -0.145,0.946 -0.145,1.246 0,0.547 0.126,0.965 0.379,1.258 0.258,0.301 0.684,0.473 1.286,0.512 l 0.617,0.043 c 0.574,0.023 0.859,0.266 0.859,0.711 0,0.094 -0.027,0.226 -0.066,0.394 l -0.598,2.829 c -0.062,0.246 -0.207,0.48 -0.453,0.687 -0.242,0.207 -0.672,0.313 -1.297,0.313 -1.332,0 -2.504,-0.219 -3.508,-0.668 -1.008,-0.446 -1.777,-1.09 -2.332,-1.938 -0.543,-0.844 -0.816,-1.844 -0.816,-2.996 0,-0.594 0.066,-1.191 0.207,-1.793 l 2.785,-13.043 h -2.309 c -0.179,0 -0.339,-0.055 -0.484,-0.168 -0.148,-0.113 -0.219,-0.266 -0.219,-0.48 0,-0.094 0.004,-0.172 0.02,-0.227 l 0.683,-3.25 c 0.075,-0.297 0.207,-0.531 0.407,-0.691 0.199,-0.161 0.422,-0.239 0.652,-0.239 h 2.309 l 0.898,-4.183 c 0.066,-0.293 0.176,-0.508 0.313,-0.641 0.136,-0.125 0.375,-0.238 0.707,-0.32 l 4.328,-1.184 0.246,-0.047 c 0.304,0 0.457,0.18 0.457,0.528 0,0.093 -0.02,0.218 -0.059,0.371 l -1.164,5.476 z" /><path
         id="path160"
         style="fill:#00dfff;fill-opacity:1;fill-rule:nonzero;stroke:none"
         d="m 466.547,88.898 c 0.125,-0.566 0.453,-0.851 0.976,-0.851 h 2.872 c 0.343,0 0.605,0.055 0.769,0.168 0.168,0.113 0.246,0.363 0.246,0.769 l -0.058,2.188 c 1.921,-2.277 4.105,-3.418 6.546,-3.418 0.973,0 1.887,0.168 2.739,0.5 0.851,0.332 1.574,0.711 2.175,1.133 0.59,0.425 1.051,0.812 1.372,1.156 0.207,0.223 0.312,0.449 0.312,0.668 0,0.219 -0.129,0.461 -0.379,0.707 l -2.429,2.641 c -0.196,0.222 -0.395,0.336 -0.606,0.336 -0.18,0 -0.367,-0.086 -0.559,-0.254 -0.613,-0.5 -1.211,-0.895 -1.812,-1.188 -0.598,-0.285 -1.309,-0.43 -2.141,-0.43 -0.859,0 -1.73,0.204 -2.625,0.618 -0.883,0.421 -1.668,1.058 -2.355,1.933 -0.684,0.864 -1.164,1.922 -1.422,3.168 l -2.977,13.965 c -0.101,0.555 -0.425,0.832 -0.976,0.832 h -4.102 c -0.437,0 -0.664,-0.18 -0.664,-0.539 0,-0.059 0.012,-0.152 0.047,-0.293 z" /><path
         id="path162"
         style="fill:#00dfff;fill-opacity:1;fill-rule:nonzero;stroke:none"
         d="m 506.23,112.707 c -0.125,0.555 -0.445,0.832 -0.957,0.832 h -3.554 c -0.305,0 -0.551,-0.086 -0.731,-0.258 -0.179,-0.172 -0.265,-0.406 -0.265,-0.699 0,-0.121 0.004,-0.219 0.019,-0.293 l 0.352,-1.664 c -1.332,1.07 -2.735,1.898 -4.211,2.488 -1.481,0.586 -2.949,0.887 -4.422,0.887 -1.941,0 -3.707,-0.426 -5.289,-1.277 -1.59,-0.86 -2.844,-2.059 -3.762,-3.618 -0.91,-1.55 -1.371,-3.332 -1.371,-5.328 0,-0.914 0.109,-1.871 0.313,-2.871 0.488,-2.371 1.527,-4.562 3.109,-6.57 1.59,-2.012 3.5,-3.613 5.73,-4.789 2.235,-1.18 4.512,-1.774 6.84,-1.774 1.754,0 3.223,0.286 4.422,0.868 1.203,0.57 2.207,1.476 3.027,2.714 l 0.891,-2.496 c 0.102,-0.293 0.219,-0.504 0.367,-0.64 0.145,-0.125 0.352,-0.192 0.614,-0.192 h 3.328 c 0.429,0 0.644,0.192 0.644,0.578 0,0.102 -0.008,0.18 -0.019,0.254 z m -3.14,-11.82 c 0.129,-0.586 0.187,-1.153 0.187,-1.703 0,-1.18 -0.254,-2.246 -0.757,-3.2 -0.508,-0.949 -1.227,-1.695 -2.145,-2.238 -0.926,-0.539 -1.984,-0.812 -3.195,-0.812 -1.344,0 -2.66,0.347 -3.946,1.039 -1.289,0.699 -2.402,1.652 -3.339,2.867 -0.942,1.211 -1.559,2.562 -1.864,4.047 -0.156,0.734 -0.226,1.414 -0.226,2.039 0,1.136 0.218,2.156 0.664,3.051 0.445,0.89 1.086,1.589 1.926,2.089 0.835,0.5 1.835,0.754 3,0.754 1.429,0 2.835,-0.367 4.21,-1.086 1.387,-0.718 2.563,-1.691 3.547,-2.906 0.989,-1.211 1.633,-2.527 1.938,-3.941" /><path
         id="path164"
         style="fill:#00dfff;fill-opacity:1;fill-rule:nonzero;stroke:none"
         d="m 536.555,112.707 c -0.125,0.555 -0.453,0.832 -0.981,0.832 h -3.426 c -0.32,0 -0.55,-0.164 -0.691,-0.496 -0.133,-0.336 -0.207,-0.68 -0.207,-1.039 l -0.02,-1.442 c -2.777,2.293 -5.55,3.438 -8.339,3.438 -1.985,0 -3.746,-0.418 -5.289,-1.254 -1.551,-0.832 -2.758,-2.004 -3.622,-3.519 -0.867,-1.528 -1.296,-3.27 -1.296,-5.235 0,-0.949 0.113,-1.972 0.351,-3.086 0.5,-2.398 1.485,-4.601 2.949,-6.605 1.469,-2.004 3.274,-3.59 5.395,-4.754 2.133,-1.168 4.394,-1.754 6.797,-1.754 1.496,0 2.855,0.289 4.074,0.859 1.215,0.567 2.262,1.368 3.121,2.391 l 2.035,-9.594 c 0.125,-0.554 0.453,-0.836 0.981,-0.836 h 4.175 c 0.45,0 0.668,0.18 0.668,0.539 0,0.063 -0.015,0.157 -0.039,0.297 z m -2.867,-11.82 c 0.124,-0.586 0.183,-1.137 0.183,-1.664 0,-1.192 -0.269,-2.27 -0.824,-3.223 -0.547,-0.961 -1.305,-1.711 -2.277,-2.258 -0.969,-0.554 -2.067,-0.828 -3.305,-0.828 -1.371,0 -2.684,0.359 -3.93,1.086 -1.25,0.719 -2.308,1.688 -3.18,2.906 -0.878,1.211 -1.457,2.535 -1.75,3.981 -0.179,0.871 -0.265,1.652 -0.265,2.332 0,1.703 0.465,3.062 1.398,4.074 0.938,1.019 2.336,1.527 4.192,1.527 1.402,0 2.797,-0.359 4.179,-1.066 1.391,-0.707 2.59,-1.664 3.602,-2.883 1.012,-1.215 1.668,-2.539 1.977,-3.984" /><path
         id="path166"
         style="fill:#00dfff;fill-opacity:1;fill-rule:nonzero;stroke:none"
         d="m 561.387,106.609 c 0.164,-0.136 0.343,-0.207 0.547,-0.207 0.218,0 0.371,0.094 0.449,0.274 l 1.683,2.429 c 0.09,0.168 0.129,0.321 0.129,0.461 0,0.278 -0.152,0.524 -0.453,0.75 -1.765,1.301 -3.441,2.246 -5.039,2.817 -1.59,0.574 -3.234,0.867 -4.926,0.867 -2.007,0 -3.82,-0.461 -5.429,-1.363 -1.61,-0.907 -2.868,-2.16 -3.774,-3.758 -0.91,-1.598 -1.363,-3.375 -1.363,-5.348 0,-0.871 0.094,-1.746 0.273,-2.605 0.512,-2.383 1.536,-4.582 3.075,-6.586 1.543,-2.004 3.421,-3.594 5.636,-4.774 2.215,-1.179 4.547,-1.773 6.989,-1.773 1.718,0 3.328,0.395 4.824,1.168 1.5,0.777 2.703,1.949 3.621,3.516 0.91,1.57 1.371,3.468 1.371,5.707 0,0.804 -0.074,1.718 -0.227,2.742 -0.113,0.668 -0.273,1.148 -0.48,1.441 -0.203,0.293 -0.449,0.465 -0.723,0.52 -0.281,0.051 -0.707,0.086 -1.273,0.086 h -17.676 c 0.027,1.203 0.274,2.277 0.738,3.211 0.461,0.937 1.133,1.668 2.004,2.195 0.871,0.527 1.91,0.793 3.102,0.793 2.508,0 4.816,-0.852 6.922,-2.563 z m -3.184,-13.941 c -1.09,0 -2.168,0.242 -3.234,0.715 -1.055,0.476 -2.024,1.137 -2.899,1.969 -0.875,0.832 -1.597,1.765 -2.183,2.812 h 14.453 c -0.051,-1.047 -0.34,-1.98 -0.852,-2.812 -0.511,-0.832 -1.222,-1.493 -2.129,-1.969 -0.91,-0.473 -1.964,-0.715 -3.156,-0.715" /><path
         id="path168"
         style="fill:#2351ff;fill-opacity:1;fill-rule:evenodd;stroke:none"
         d="m 47.699,31.551 c 10.231,0 18.52,8.297 18.52,18.531 0,10.234 -8.289,18.531 -18.52,18.531 -10.226,0 -18.519,-8.297 -18.519,-18.531 0,-10.234 8.293,-18.531 18.519,-18.531" /><path
         id="path170"
         style="fill:#2351ff;fill-opacity:1;fill-rule:evenodd;stroke:none"
         d="m 39.762,19.691 c -13.489,3.52 -23.446,15.789 -23.446,30.391 0,14.598 9.957,26.871 23.446,30.387 -0.004,0.008 -0.008,0.008 -0.004,0.011 0.867,0.188 1.515,0.958 1.515,1.879 v 12.77 c 0,1.062 -0.863,1.926 -1.925,1.926 -0.071,0 -0.141,-0.004 -0.211,-0.012 C 16.879,93.004 0,73.516 0,50.082 0,26.645 16.879,7.16 39.137,3.121 c 0.07,-0.008 0.14,-0.012 0.211,-0.012 1.062,0 1.925,0.864 1.925,1.926 v 12.77 c 0,0.922 -0.648,1.691 -1.515,1.879 -0.004,0 0,0.004 0.004,0.007" /><path
         id="path172"
         style="fill:#2351ff;fill-opacity:1;fill-rule:evenodd;stroke:none"
         d="m 73.953,67.289 c -4.207,6.414 -10.695,11.195 -18.316,13.18 0.008,0.008 0.008,0.008 0.004,0.011 -0.864,0.188 -1.512,0.958 -1.512,1.879 v 12.77 c 0,1.062 0.859,1.926 1.922,1.926 0.074,0 0.144,-0.004 0.215,-0.012 18.035,-3.273 32.535,-16.691 37.386,-34.133 0.028,-0.098 0.055,-0.199 0.082,-0.301 0.024,-0.082 0.047,-0.164 0.071,-0.25 0.304,-1.152 0.57,-2.324 0.789,-3.507 0,-0.016 0,-0.036 0.004,-0.051 0.035,-0.141 0.05,-0.285 0.05,-0.434 0,-1 -0.82,-1.816 -1.851,-1.851 H 79.906 c -0.859,0.031 -1.574,0.605 -1.785,1.375 0,0.004 -0.008,0.004 -0.016,0 -0.867,3.386 -2.285,6.554 -4.152,9.402 z" /><path
         id="path174"
         style="fill:#2351ff;fill-opacity:1;fill-rule:evenodd;stroke:none"
         d="m 55.637,19.691 c 11,2.868 19.648,11.559 22.468,22.582 0.008,-0.007 0.016,-0.007 0.016,-0.003 0.215,0.773 0.93,1.347 1.785,1.378 h 12.895 c 1.027,-0.035 1.851,-0.851 1.851,-1.855 0,-0.148 -0.019,-0.293 -0.054,-0.43 C 94.594,41.344 94.594,41.328 94.594,41.312 90.996,21.918 75.676,6.645 56.266,3.121 56.195,3.113 56.125,3.109 56.051,3.109 c -1.063,0 -1.922,0.864 -1.922,1.926 v 12.77 c 0,0.922 0.648,1.691 1.512,1.879 0.004,0 0.004,0.004 -0.004,0.007" /></g></g></svg>