<?xml version="1.0" encoding="UTF-8" standalone="no"?>
<svg
   xmlns:dc="http://purl.org/dc/elements/1.1/"
   xmlns:cc="http://creativecommons.org/ns#"
   xmlns:rdf="http://www.w3.org/1999/02/22-rdf-syntax-ns#"
   xmlns:svg="http://www.w3.org/2000/svg"
   xmlns="http://www.w3.org/2000/svg"
   viewBox="0 0 612 152"
   height="152"
   width="612"
   xml:space="preserve"
   id="svg2"
   version="1.1"><metadata
     id="metadata8"><rdf:RDF><cc:Work
         rdf:about=""><dc:format>image/svg+xml</dc:format><dc:type
           rdf:resource="http://purl.org/dc/dcmitype/StillImage" /></cc:Work></rdf:RDF></metadata><defs
     id="defs6"><linearGradient
       id="linearGradient28"
       spreadMethod="pad"
       gradientTransform="matrix(1.001649,0,0,-1.001174,-301.25093,354.78506)"
       gradientUnits="userSpaceOnUse"
       y2="278.04999"
       x2="697.96997"
       y1="278.04999"
       x1="315.92999"><stop
         id="stop24"
         offset="0"
         style="stop-opacity:1;stop-color:#2351ff" /><stop
         id="stop26"
         offset="1"
         style="stop-opacity:1;stop-color:#00dfff" /></linearGradient><linearGradient
       id="linearGradient46"
       spreadMethod="pad"
       gradientTransform="matrix(1.001649,0,0,-1.001174,-301.25093,354.78506)"
       gradientUnits="userSpaceOnUse"
       y2="278.04999"
       x2="697.96997"
       y1="278.04999"
       x1="315.92999"><stop
         id="stop42"
         offset="0"
         style="stop-opacity:1;stop-color:#2351ff" /><stop
         id="stop44"
         offset="1"
         style="stop-opacity:1;stop-color:#00dfff" /></linearGradient><linearGradient
       id="linearGradient64"
       spreadMethod="pad"
       gradientTransform="matrix(1.001649,0,0,-1.001174,-301.25093,354.78506)"
       gradientUnits="userSpaceOnUse"
       y2="278.04999"
       x2="697.96997"
       y1="278.04999"
       x1="315.92999"><stop
         id="stop60"
         offset="0"
         style="stop-opacity:1;stop-color:#2351ff" /><stop
         id="stop62"
         offset="1"
         style="stop-opacity:1;stop-color:#00dfff" /></linearGradient><linearGradient
       id="linearGradient82"
       spreadMethod="pad"
       gradientTransform="matrix(1.001649,0,0,-1.001174,-301.25093,354.78506)"
       gradientUnits="userSpaceOnUse"
       y2="278.04999"
       x2="697.96997"
       y1="278.04999"
       x1="315.92999"><stop
         id="stop78"
         offset="0"
         style="stop-opacity:1;stop-color:#2351ff" /><stop
         id="stop80"
         offset="1"
         style="stop-opacity:1;stop-color:#00dfff" /></linearGradient><linearGradient
       id="linearGradient100"
       spreadMethod="pad"
       gradientTransform="matrix(1.001649,0,0,-1.001174,-301.25093,354.78506)"
       gradientUnits="userSpaceOnUse"
       y2="278.04999"
       x2="697.96997"
       y1="278.04999"
       x1="315.92999"><stop
         id="stop96"
         offset="0"
         style="stop-opacity:1;stop-color:#2351ff" /><stop
         id="stop98"
         offset="1"
         style="stop-opacity:1;stop-color:#00dfff" /></linearGradient><linearGradient
       id="linearGradient118"
       spreadMethod="pad"
       gradientTransform="matrix(1.001649,0,0,-1.001174,-301.25093,354.78506)"
       gradientUnits="userSpaceOnUse"
       y2="278.04999"
       x2="697.96997"
       y1="278.04999"
       x1="315.92999"><stop
         id="stop114"
         offset="0"
         style="stop-opacity:1;stop-color:#2351ff" /><stop
         id="stop116"
         offset="1"
         style="stop-opacity:1;stop-color:#00dfff" /></linearGradient><linearGradient
       id="linearGradient136"
       spreadMethod="pad"
       gradientTransform="matrix(1.001649,0,0,-1.001174,-301.25093,354.78506)"
       gradientUnits="userSpaceOnUse"
       y2="278.04999"
       x2="697.96997"
       y1="278.04999"
       x1="315.92999"><stop
         id="stop132"
         offset="0"
         style="stop-opacity:1;stop-color:#2351ff" /><stop
         id="stop134"
         offset="1"
         style="stop-opacity:1;stop-color:#00dfff" /></linearGradient><linearGradient
       id="linearGradient154"
       spreadMethod="pad"
       gradientTransform="matrix(1.001649,0,0,-1.001174,-301.25093,354.78506)"
       gradientUnits="userSpaceOnUse"
       y2="278.04999"
       x2="697.96997"
       y1="278.04999"
       x1="315.92999"><stop
         id="stop150"
         offset="0"
         style="stop-opacity:1;stop-color:#2351ff" /><stop
         id="stop152"
         offset="1"
         style="stop-opacity:1;stop-color:#00dfff" /></linearGradient></defs><g
     transform="matrix(1.3333333,0,0,1.3333333,0,3.8e-6)"
     id="g10"><g
       id="g12"><g
         id="g14"><g
           id="g16"><g
             id="g22"><path
               id="path30"
               style="fill:url(#linearGradient28);fill-rule:evenodd;stroke:none"
               d="m 368.473,31.098 c -1.828,0 -3.61,0.324 -5.34,0.988 -1.735,0.668 -3.313,1.566 -4.754,2.711 -1.438,1.144 -2.691,2.488 -3.762,4.019 -1.066,1.551 -1.855,3.204 -2.351,5 h 32.875 c -0.493,-1.89 -1.239,-3.605 -2.243,-5.152 -1.007,-1.562 -2.23,-2.91 -3.652,-4.023 -1.426,-1.129 -3.051,-1.996 -4.879,-2.614 -1.824,-0.621 -3.789,-0.929 -5.894,-0.929 z m 20.617,41.851 c -2.727,2.336 -5.695,4.176 -8.934,5.524 -3.234,1.343 -6.793,2.011 -10.664,2.011 -4.18,0 -8.14,-0.789 -11.887,-2.367 -3.746,-1.578 -7.027,-3.746 -9.843,-6.5 -2.817,-2.769 -5.047,-5.988 -6.703,-9.683 -1.657,-3.715 -2.493,-7.692 -2.493,-11.977 0,-2.754 0.34,-5.414 1.024,-7.984 0.68,-2.567 1.656,-4.981 2.906,-7.223 1.254,-2.246 2.774,-4.301 4.566,-6.176 1.797,-1.871 3.809,-3.48 6.024,-4.808 2.215,-1.332 4.613,-2.352 7.195,-3.082 2.586,-0.727 5.313,-1.098 8.192,-1.098 2.351,0 4.672,0.281 6.965,0.852 2.289,0.574 4.472,1.394 6.531,2.445 2.058,1.051 3.976,2.32 5.773,3.82 1.797,1.5 3.375,3.203 4.738,5.09 1.856,2.602 3.219,5.402 4.086,8.402 0.868,3 1.301,6.328 1.301,9.981 0,0.894 -0.031,1.636 -0.109,2.242 -0.078,0.602 -0.278,1.098 -0.59,1.469 -0.309,0.371 -0.773,0.633 -1.391,0.804 -0.621,0.172 -1.488,0.262 -2.601,0.262 h -41.188 c 0.403,2.215 1.176,4.195 2.305,5.895 1.129,1.718 2.461,3.156 4.008,4.347 1.551,1.192 3.234,2.09 5.062,2.696 1.828,0.601 3.653,0.894 5.481,0.894 1.39,0 2.738,-0.137 4.023,-0.418 1.285,-0.277 2.477,-0.648 3.59,-1.113 1.117,-0.465 2.152,-1.004 3.098,-1.609 0.945,-0.602 1.765,-1.223 2.476,-1.872 0,-0.031 0.016,-0.046 0.047,-0.046 0.371,-0.34 0.727,-0.618 1.067,-0.821 0.339,-0.199 0.695,-0.293 1.07,-0.293 0.277,0 0.601,0.094 0.957,0.278 0.355,0.187 0.699,0.496 1.039,0.929 0.836,1.02 1.547,1.871 2.137,2.551 0.586,0.684 1.066,1.254 1.437,1.719 0.371,0.465 0.653,0.867 0.82,1.207 0.172,0.34 0.25,0.695 0.25,1.035 0,0.867 -0.589,1.75 -1.765,2.617" /></g></g></g><g
         id="g32"><g
           id="g34"><g
             id="g40"><path
               id="path48"
               style="fill:url(#linearGradient46);stroke:none"
               d="m 283.477,49.816 c 0,2.493 0.433,4.829 1.3,7.059 0.868,2.211 2.075,4.145 3.621,5.832 1.532,1.668 3.36,2.984 5.45,3.961 2.074,0.973 4.363,1.469 6.84,1.469 2.429,0 4.738,-0.481 6.906,-1.438 2.164,-0.961 4.054,-2.261 5.648,-3.887 1.61,-1.621 2.895,-3.527 3.84,-5.691 0.941,-2.168 1.438,-4.457 1.5,-6.887 v -0.742 c -0.062,-2.414 -0.559,-4.703 -1.5,-6.867 -0.945,-2.168 -2.23,-4.07 -3.84,-5.727 -1.594,-1.64 -3.484,-2.937 -5.648,-3.898 -2.168,-0.957 -4.477,-1.438 -6.906,-1.438 -2.477,0 -4.766,0.497 -6.84,1.469 -2.09,0.977 -3.918,2.289 -5.45,3.961 -1.546,1.688 -2.753,3.621 -3.621,5.832 -0.867,2.231 -1.3,4.551 -1.3,6.992 z m 34.222,25.469 c 0.156,-0.558 0.231,-1.207 0.231,-1.965 0,-0.758 0.031,-1.457 0.093,-2.105 -1.113,1.176 -2.289,2.273 -3.543,3.312 -1.253,1.02 -2.617,1.918 -4.07,2.676 -1.457,0.758 -3.035,1.359 -4.738,1.793 -1.703,0.434 -3.543,0.652 -5.527,0.652 -2.786,0 -5.446,-0.339 -8,-1.023 -2.555,-0.68 -4.938,-1.656 -7.137,-2.922 -2.199,-1.285 -4.196,-2.816 -5.988,-4.613 -1.797,-1.793 -3.329,-3.789 -4.614,-5.985 -1.285,-2.214 -2.277,-4.597 -2.972,-7.164 -0.696,-2.57 -1.055,-5.277 -1.055,-8.093 0,-2.786 0.359,-5.493 1.055,-8.09 0.695,-2.598 1.687,-5.028 2.972,-7.274 1.285,-2.242 2.817,-4.3 4.629,-6.156 1.793,-1.855 3.789,-3.449 5.988,-4.766 2.2,-1.316 4.582,-2.335 7.137,-3.062 2.555,-0.727 5.231,-1.098 8.016,-1.098 1.984,0 3.855,0.2 5.605,0.618 1.75,0.418 3.391,1.023 4.922,1.796 1.531,0.774 2.973,1.684 4.305,2.739 1.328,1.05 2.551,2.195 3.668,3.433 0.121,-0.836 0.246,-1.656 0.355,-2.461 0.11,-0.804 0.199,-1.625 0.293,-2.461 0.188,-0.863 0.465,-1.546 0.821,-2.023 0.355,-0.481 1.023,-0.715 2.011,-0.715 1.024,0 2.043,0.016 3.051,0.047 1.004,0.031 2.012,0.047 3.035,0.047 0.711,0 1.344,0.246 1.887,0.742 0.543,0.496 0.805,1.145 0.805,1.949 v 47.344 c 0,5.074 -0.821,9.469 -2.461,13.199 -1.641,3.727 -3.871,6.821 -6.688,9.282 -2.816,2.46 -6.082,4.3 -9.812,5.507 -3.731,1.207 -7.696,1.809 -11.871,1.809 -1.766,0 -3.532,-0.152 -5.313,-0.449 -1.777,-0.293 -3.527,-0.711 -5.23,-1.25 -1.704,-0.543 -3.329,-1.207 -4.875,-1.996 -1.547,-0.805 -2.957,-1.688 -4.227,-2.692 -0.402,-0.25 -0.727,-0.543 -0.992,-0.898 -0.262,-0.356 -0.403,-0.805 -0.403,-1.332 0,-0.246 0.032,-0.512 0.094,-0.774 0.063,-0.261 0.219,-0.554 0.465,-0.914 l 3.484,-5.058 c 0.34,-0.403 0.649,-0.711 0.926,-0.911 0.281,-0.203 0.59,-0.296 0.93,-0.296 0.25,0.031 0.527,0.093 0.851,0.187 0.325,0.094 0.668,0.277 1.008,0.555 0.742,0.652 1.657,1.191 2.754,1.64 1.098,0.45 2.246,0.821 3.438,1.118 1.191,0.293 2.367,0.507 3.558,0.632 1.192,0.125 2.262,0.184 3.188,0.184 2.277,0 4.476,-0.293 6.566,-0.879 2.074,-0.59 3.93,-1.441 5.555,-2.539 1.625,-1.113 2.957,-2.461 3.992,-4.023 1.039,-1.579 1.641,-3.34 1.828,-5.274" /></g></g></g><g
         id="g50"><g
           id="g52"><g
             id="g58"><path
               id="path66"
               style="fill:url(#linearGradient64);stroke:none"
               d="m 214.648,49.941 c 0,2.477 0.434,4.813 1.301,7.024 0.867,2.215 2.074,4.164 3.621,5.832 1.532,1.672 3.36,2.988 5.45,3.961 2.074,0.976 4.363,1.472 6.839,1.472 2.493,0 4.848,-0.496 7.012,-1.472 2.184,-0.973 4.09,-2.289 5.684,-3.961 1.609,-1.668 2.879,-3.617 3.808,-5.832 0.926,-2.211 1.391,-4.547 1.391,-7.024 0,-2.445 -0.465,-4.781 -1.391,-6.992 -0.929,-2.215 -2.199,-4.148 -3.808,-5.816 -1.594,-1.672 -3.5,-3.004 -5.684,-3.992 -2.164,-0.993 -4.519,-1.485 -7.012,-1.485 -2.476,0 -4.765,0.492 -6.839,1.485 -2.09,0.988 -3.918,2.32 -5.45,3.992 -1.547,1.668 -2.754,3.601 -3.621,5.816 -0.867,2.211 -1.301,4.547 -1.301,6.992 z m 48.293,26.782 c 0,0.558 -0.121,1.007 -0.355,1.363 -0.231,0.355 -0.527,0.633 -0.898,0.836 -0.372,0.199 -0.805,0.34 -1.286,0.414 -0.476,0.078 -0.988,0.125 -1.515,0.125 h -5.821 c -1.004,0 -1.687,-0.262 -2.074,-0.789 -0.387,-0.527 -0.68,-1.192 -0.867,-1.996 l -0.277,-3.93 c -1.082,1.082 -2.278,2.106 -3.59,3.047 -1.317,0.961 -2.742,1.781 -4.258,2.477 -1.516,0.695 -3.129,1.238 -4.828,1.625 -1.703,0.386 -3.453,0.589 -5.25,0.589 -2.785,0 -5.461,-0.375 -8.047,-1.101 -2.586,-0.727 -5.016,-1.746 -7.277,-3.063 -2.258,-1.312 -4.301,-2.89 -6.145,-4.75 -1.84,-1.871 -3.422,-3.929 -4.734,-6.187 -1.317,-2.258 -2.34,-4.688 -3.067,-7.289 -0.726,-2.598 -1.097,-5.305 -1.097,-8.137 0,-2.816 0.371,-5.523 1.097,-8.121 0.727,-2.602 1.75,-5.031 3.067,-7.289 1.312,-2.258 2.894,-4.317 4.734,-6.156 1.844,-1.84 3.887,-3.418 6.145,-4.735 2.261,-1.316 4.691,-2.336 7.277,-3.062 2.586,-0.727 5.262,-1.102 8.047,-1.102 1.984,0 3.871,0.203 5.668,0.621 1.793,0.418 3.48,1.004 5.043,1.762 1.566,0.762 3.004,1.672 4.336,2.738 1.332,1.071 2.539,2.246 3.621,3.516 l 0.652,-5 c 0.153,-0.555 0.309,-1.02 0.446,-1.375 0.14,-0.356 0.312,-0.652 0.511,-0.867 0.203,-0.219 0.465,-0.356 0.774,-0.434 0.312,-0.078 0.699,-0.125 1.164,-0.125 h 4.656 c 0.496,0 0.992,0.047 1.488,0.141 0.496,0.093 0.957,0.23 1.36,0.433 0.402,0.2 0.714,0.496 0.945,0.852 0.234,0.355 0.355,0.789 0.355,1.312 z" /></g></g></g><g
         id="g68"><g
           id="g70"><g
             id="g76"><path
               id="path84"
               style="fill:url(#linearGradient82);stroke:none"
               d="m 141.719,23.207 c 0,-0.434 0.183,-0.898 0.554,-1.391 0.375,-0.496 0.731,-0.804 1.071,-0.929 0.246,-0.219 0.633,-0.34 1.129,-0.356 0.496,-0.015 0.961,-0.015 1.394,-0.015 h 4.703 c 0.899,0 1.567,0.293 2,0.882 0.434,0.586 0.742,1.239 0.895,1.95 l 0.512,4.902 c 0.711,-1.051 1.578,-2.086 2.617,-3.125 1.051,-1.02 2.273,-1.934 3.699,-2.738 1.422,-0.821 3.047,-1.469 4.891,-1.965 1.828,-0.496 3.886,-0.742 6.175,-0.742 3.653,0 6.918,0.664 9.766,1.98 2.852,1.317 5.25,3.11 7.199,5.399 1.965,2.289 3.438,5 4.442,8.093 1.007,3.094 1.519,6.418 1.519,9.977 v 30.992 c 0,1.113 -0.265,1.949 -0.789,2.504 -0.527,0.559 -1.285,0.836 -2.293,0.836 h -7.074 c -1.254,0 -2.074,-0.231 -2.492,-0.695 -0.418,-0.465 -0.633,-1.286 -0.633,-2.461 v -30.91 c 0,-1.641 -0.281,-3.25 -0.836,-4.813 -0.559,-1.562 -1.363,-2.957 -2.43,-4.191 -1.07,-1.239 -2.402,-2.231 -3.98,-2.973 -1.578,-0.742 -3.403,-1.113 -5.477,-1.113 -1.426,0 -2.894,0.277 -4.429,0.851 -1.532,0.571 -2.942,1.391 -4.211,2.446 -1.266,1.05 -2.321,2.32 -3.157,3.82 -0.836,1.5 -1.269,3.203 -1.3,5.09 V 74.59 c 0,0.586 -0.032,1.176 -0.094,1.762 -0.059,0.589 -0.199,1.113 -0.402,1.578 -0.2,0.465 -0.477,0.836 -0.848,1.113 -0.375,0.281 -0.867,0.418 -1.457,0.418 h -7.676 c -1.039,0 -1.781,-0.246 -2.262,-0.727 -0.48,-0.48 -0.726,-1.16 -0.726,-2.058 z" /></g></g></g><g
         id="g86"><g
           id="g88"><g
             id="g94"><path
               id="path102"
               style="fill:url(#linearGradient100);stroke:none"
               d="M 120.445,2.801 C 120.445,0.93 121.359,0 123.203,0 h 7.817 c 0.882,0 1.578,0.23 2.105,0.695 0.523,0.465 0.789,1.16 0.789,2.106 V 9.73 c 0,0.711 -0.25,1.395 -0.742,2.028 -0.496,0.637 -1.192,0.961 -2.106,0.961 h -7.816 c -1.875,0 -2.805,-0.992 -2.805,-2.989 z" /></g></g></g><g
         id="g104"><g
           id="g106"><g
             id="g112"><path
               id="path120"
               style="fill:url(#linearGradient118);stroke:none"
               d="m 120.445,23.348 c 0,-0.805 0.235,-1.485 0.7,-2.028 0.464,-0.543 1.144,-0.804 2.058,-0.804 h 7.723 c 0.34,0 0.695,0.062 1.054,0.199 0.356,0.14 0.68,0.344 0.958,0.605 0.281,0.262 0.511,0.571 0.695,0.914 0.187,0.34 0.281,0.711 0.281,1.114 v 53.328 c 0,1.859 -0.976,2.785 -2.941,2.785 h -7.723 c -1.875,0 -2.805,-0.926 -2.805,-2.785 z" /></g></g></g><g
         id="g122"><g
           id="g124"><g
             id="g130"><path
               id="path138"
               style="fill:url(#linearGradient136);stroke:none"
               d="m 64.879,50.082 c 0,2.477 0.433,4.813 1.301,7.023 0.867,2.211 2.074,4.145 3.621,5.786 1.535,1.64 3.375,2.941 5.496,3.898 2.105,0.961 4.43,1.441 6.933,1.441 2.434,0 4.708,-0.48 6.782,-1.441 2.09,-0.957 3.902,-2.258 5.402,-3.898 1.516,-1.641 2.707,-3.575 3.559,-5.786 0.851,-2.21 1.269,-4.546 1.269,-7.023 0,-2.445 -0.418,-4.781 -1.269,-7.008 -0.852,-2.23 -2.043,-4.195 -3.559,-5.879 -1.5,-1.687 -3.312,-3.035 -5.402,-4.039 -2.074,-1.008 -4.348,-1.5 -6.782,-1.5 -2.503,0 -4.828,0.492 -6.933,1.5 -2.121,1.004 -3.961,2.352 -5.496,4.039 -1.547,1.684 -2.754,3.649 -3.621,5.879 -0.868,2.227 -1.301,4.563 -1.301,7.008 z m -13.094,0.016 c 0,-2.817 0.356,-5.524 1.082,-8.141 0.731,-2.629 1.766,-5.059 3.098,-7.316 1.332,-2.258 2.926,-4.317 4.781,-6.157 1.844,-1.843 3.902,-3.422 6.164,-4.734 2.258,-1.316 4.688,-2.336 7.258,-3.066 2.586,-0.727 5.293,-1.098 8.109,-1.098 2.774,0 5.465,0.371 8.067,1.098 2.601,0.73 5.015,1.75 7.258,3.066 2.246,1.312 4.304,2.891 6.144,4.734 1.859,1.84 3.453,3.899 4.785,6.157 1.332,2.257 2.367,4.687 3.094,7.316 0.73,2.617 1.086,5.324 1.086,8.141 0,2.832 -0.356,5.539 -1.086,8.136 -0.727,2.598 -1.762,5.028 -3.094,7.274 -1.332,2.242 -2.926,4.285 -4.785,6.156 -1.84,1.856 -3.898,3.434 -6.144,4.75 -2.243,1.316 -4.657,2.336 -7.258,3.063 -2.602,0.726 -5.293,1.097 -8.067,1.097 -2.816,0 -5.523,-0.371 -8.109,-1.097 -2.57,-0.727 -5,-1.747 -7.258,-3.063 -2.262,-1.316 -4.32,-2.894 -6.164,-4.75 -1.855,-1.871 -3.449,-3.914 -4.781,-6.156 -1.332,-2.246 -2.367,-4.676 -3.098,-7.274 -0.726,-2.597 -1.082,-5.304 -1.082,-8.136" /></g></g></g><g
         id="g140"><g
           id="g142"><g
             id="g148"><path
               id="path156"
               style="fill:url(#linearGradient154);stroke:none"
               d="m 42.395,64.051 c 0.527,-0.34 0.976,-0.555 1.332,-0.633 0.355,-0.078 0.652,-0.109 0.898,-0.109 0.527,0.031 0.977,0.308 1.348,0.836 l 1.113,1.531 3.297,4.687 c 0.156,0.219 0.277,0.434 0.371,0.668 0.094,0.231 0.141,0.446 0.141,0.633 0,0.496 -0.172,0.93 -0.512,1.316 -0.34,0.387 -0.789,0.79 -1.348,1.192 -2.629,1.918 -5.461,3.465 -8.512,4.64 -3.05,1.176 -6.406,1.762 -10.062,1.762 -2.754,0 -5.418,-0.371 -8,-1.097 C 19.875,78.75 17.445,77.73 15.199,76.414 12.957,75.098 10.914,73.52 9.039,71.68 7.184,69.824 5.57,67.781 4.227,65.523 2.863,63.246 1.828,60.82 1.098,58.219 0.371,55.621 0,52.898 0,50.082 c 0,-2.816 0.371,-5.539 1.098,-8.141 0.73,-2.597 1.765,-5.027 3.129,-7.3 1.343,-2.258 2.957,-4.301 4.812,-6.157 1.875,-1.843 3.918,-3.422 6.16,-4.734 2.246,-1.316 4.676,-2.336 7.262,-3.066 2.582,-0.727 5.246,-1.098 8,-1.098 3.437,0 6.687,0.527 9.754,1.578 3.062,1.055 5.789,2.477 8.172,4.27 L 48.34,25.391 c 0.433,0.429 0.867,0.804 1.285,1.129 0.418,0.324 0.621,0.835 0.621,1.515 0,0.184 0,0.403 -0.016,0.649 -0.015,0.25 -0.109,0.48 -0.265,0.695 l -3.809,5.805 c -0.617,0.925 -1.297,1.39 -2.043,1.39 -0.523,0 -1.113,-0.262 -1.761,-0.789 -1.582,-1.332 -3.422,-2.414 -5.528,-3.25 -2.105,-0.832 -4.273,-1.25 -6.5,-1.25 -2.414,0 -4.676,0.508 -6.797,1.516 -2.121,1.004 -3.992,2.367 -5.601,4.082 -1.61,1.734 -2.879,3.73 -3.809,6.004 -0.929,2.289 -1.394,4.687 -1.394,7.195 0,2.566 0.465,4.996 1.394,7.254 0.93,2.277 2.199,4.242 3.793,5.91 1.594,1.672 3.449,3.004 5.586,3.977 2.137,0.976 4.414,1.472 6.828,1.472 2.629,0 4.906,-0.465 6.824,-1.379 1.922,-0.914 3.668,-1.996 5.247,-3.265" /></g></g></g><path
         id="path158"
         style="fill:#00dfff;fill-opacity:1;fill-rule:nonzero;stroke:none"
         d="m 351.484,88.195 c 0.473,0 0.715,0.192 0.715,0.578 0,0.059 -0.015,0.153 -0.039,0.293 l -0.695,3.309 c -0.067,0.281 -0.207,0.492 -0.414,0.648 -0.203,0.153 -0.446,0.227 -0.703,0.227 h -2.879 l -2.641,12.445 c -0.098,0.528 -0.144,0.946 -0.144,1.246 0,0.547 0.125,0.965 0.378,1.258 0.262,0.301 0.688,0.473 1.286,0.512 l 0.621,0.043 c 0.574,0.023 0.859,0.266 0.859,0.711 0,0.094 -0.027,0.226 -0.066,0.394 l -0.602,2.829 c -0.058,0.246 -0.207,0.48 -0.453,0.687 -0.238,0.207 -0.672,0.313 -1.297,0.313 -1.332,0 -2.508,-0.219 -3.512,-0.668 -1.007,-0.446 -1.781,-1.09 -2.332,-1.938 -0.546,-0.844 -0.82,-1.844 -0.82,-2.996 0,-0.594 0.066,-1.191 0.207,-1.793 l 2.793,-13.043 h -2.312 c -0.18,0 -0.34,-0.055 -0.489,-0.168 -0.144,-0.113 -0.218,-0.266 -0.218,-0.48 0,-0.094 0.007,-0.172 0.019,-0.227 l 0.688,-3.25 c 0.07,-0.297 0.207,-0.531 0.406,-0.691 0.199,-0.161 0.418,-0.239 0.652,-0.239 h 2.313 l 0.898,-4.183 c 0.067,-0.293 0.172,-0.508 0.313,-0.641 0.132,-0.125 0.375,-0.238 0.707,-0.32 l 4.332,-1.184 0.246,-0.047 c 0.304,0 0.461,0.18 0.461,0.528 0,0.093 -0.024,0.218 -0.063,0.371 l -1.164,5.476 z" /><path
         id="path160"
         style="fill:#00dfff;fill-opacity:1;fill-rule:nonzero;stroke:none"
         d="m 356.43,88.898 c 0.125,-0.566 0.453,-0.851 0.98,-0.851 h 2.871 c 0.348,0 0.606,0.055 0.774,0.168 0.164,0.113 0.246,0.363 0.246,0.769 l -0.059,2.188 c 1.926,-2.277 4.11,-3.418 6.555,-3.418 0.973,0 1.887,0.168 2.738,0.5 0.852,0.332 1.578,0.711 2.18,1.133 0.594,0.425 1.051,0.812 1.371,1.156 0.207,0.223 0.312,0.449 0.312,0.668 0,0.219 -0.125,0.461 -0.378,0.707 l -2.43,2.641 c -0.195,0.222 -0.395,0.336 -0.61,0.336 -0.179,0 -0.363,-0.086 -0.558,-0.254 -0.613,-0.5 -1.211,-0.895 -1.813,-1.188 -0.597,-0.285 -1.312,-0.43 -2.144,-0.43 -0.86,0 -1.735,0.204 -2.625,0.618 -0.887,0.421 -1.672,1.058 -2.36,1.933 -0.687,0.864 -1.168,1.922 -1.425,3.168 l -2.977,13.965 c -0.101,0.555 -0.43,0.832 -0.98,0.832 h -4.106 c -0.437,0 -0.664,-0.18 -0.664,-0.539 0,-0.059 0.012,-0.152 0.043,-0.293 z" /><path
         id="path162"
         style="fill:#00dfff;fill-opacity:1;fill-rule:nonzero;stroke:none"
         d="m 396.16,112.707 c -0.125,0.555 -0.445,0.832 -0.957,0.832 h -3.558 c -0.309,0 -0.555,-0.086 -0.735,-0.258 -0.18,-0.172 -0.265,-0.406 -0.265,-0.699 0,-0.121 0.007,-0.219 0.019,-0.293 l 0.356,-1.664 c -1.336,1.07 -2.743,1.898 -4.219,2.488 -1.481,0.586 -2.953,0.887 -4.426,0.887 -1.945,0 -3.711,-0.426 -5.297,-1.277 -1.59,-0.86 -2.844,-2.059 -3.766,-3.618 -0.91,-1.55 -1.371,-3.332 -1.371,-5.328 0,-0.914 0.106,-1.871 0.313,-2.871 0.488,-2.371 1.527,-4.562 3.113,-6.57 1.594,-2.012 3.504,-3.613 5.735,-4.789 2.242,-1.18 4.519,-1.774 6.851,-1.774 1.75,0 3.223,0.286 4.422,0.868 1.207,0.57 2.215,1.476 3.035,2.714 l 0.891,-2.496 c 0.101,-0.293 0.219,-0.504 0.367,-0.64 0.144,-0.125 0.352,-0.192 0.613,-0.192 h 3.332 c 0.434,0 0.645,0.192 0.645,0.578 0,0.102 -0.008,0.18 -0.02,0.254 z m -3.144,-11.82 c 0.129,-0.586 0.187,-1.153 0.187,-1.703 0,-1.18 -0.254,-2.246 -0.758,-3.2 -0.507,-0.949 -1.226,-1.695 -2.148,-2.238 -0.926,-0.539 -1.985,-0.812 -3.195,-0.812 -1.348,0 -2.668,0.347 -3.954,1.039 -1.293,0.699 -2.406,1.652 -3.343,2.867 -0.942,1.211 -1.559,2.562 -1.867,4.047 -0.153,0.734 -0.227,1.414 -0.227,2.039 0,1.136 0.223,2.156 0.668,3.051 0.445,0.89 1.086,1.589 1.926,2.089 0.84,0.5 1.84,0.754 3.004,0.754 1.433,0 2.839,-0.367 4.218,-1.086 1.387,-0.718 2.563,-1.691 3.551,-2.906 0.984,-1.211 1.633,-2.527 1.938,-3.941" /><path
         id="path164"
         style="fill:#00dfff;fill-opacity:1;fill-rule:nonzero;stroke:none"
         d="m 426.52,112.707 c -0.129,0.555 -0.454,0.832 -0.981,0.832 h -3.434 c -0.316,0 -0.55,-0.164 -0.691,-0.496 -0.133,-0.336 -0.207,-0.68 -0.207,-1.039 l -0.019,-1.442 c -2.778,2.293 -5.559,3.438 -8.348,3.438 -1.988,0 -3.75,-0.418 -5.297,-1.254 -1.555,-0.832 -2.758,-2.004 -3.625,-3.519 -0.867,-1.528 -1.301,-3.27 -1.301,-5.235 0,-0.949 0.113,-1.972 0.356,-3.086 0.5,-2.398 1.484,-4.601 2.949,-6.605 1.473,-2.004 3.281,-3.59 5.406,-4.754 2.129,-1.168 4.395,-1.754 6.801,-1.754 1.5,0 2.859,0.289 4.078,0.859 1.219,0.567 2.266,1.368 3.125,2.391 l 2.039,-9.594 c 0.125,-0.554 0.453,-0.836 0.981,-0.836 h 4.183 c 0.445,0 0.664,0.18 0.664,0.539 0,0.063 -0.011,0.157 -0.039,0.297 z m -2.875,-11.82 c 0.128,-0.586 0.187,-1.137 0.187,-1.664 0,-1.192 -0.273,-2.27 -0.824,-3.223 -0.547,-0.961 -1.309,-1.711 -2.281,-2.258 -0.973,-0.554 -2.071,-0.828 -3.309,-0.828 -1.375,0 -2.688,0.359 -3.934,1.086 -1.25,0.719 -2.312,1.688 -3.183,2.906 -0.879,1.211 -1.461,2.535 -1.754,3.981 -0.18,0.871 -0.266,1.652 -0.266,2.332 0,1.703 0.469,3.062 1.399,4.074 0.941,1.019 2.34,1.527 4.199,1.527 1.406,0 2.797,-0.359 4.183,-1.066 1.395,-0.707 2.594,-1.664 3.606,-2.883 1.012,-1.215 1.672,-2.539 1.977,-3.984" /><path
         id="path166"
         style="fill:#00dfff;fill-opacity:1;fill-rule:nonzero;stroke:none"
         d="m 451.379,106.609 c 0.164,-0.136 0.344,-0.207 0.547,-0.207 0.219,0 0.371,0.094 0.453,0.274 l 1.683,2.429 c 0.086,0.168 0.126,0.321 0.126,0.461 0,0.278 -0.153,0.524 -0.454,0.75 -1.765,1.301 -3.441,2.246 -5.043,2.817 -1.589,0.574 -3.238,0.867 -4.929,0.867 -2.012,0 -3.824,-0.461 -5.438,-1.363 -1.613,-0.907 -2.871,-2.16 -3.777,-3.758 -0.914,-1.598 -1.367,-3.375 -1.367,-5.348 0,-0.871 0.093,-1.746 0.273,-2.605 0.516,-2.383 1.539,-4.582 3.078,-6.586 1.547,-2.004 3.426,-3.594 5.645,-4.774 2.219,-1.179 4.551,-1.773 6.996,-1.773 1.719,0 3.332,0.395 4.832,1.168 1.496,0.777 2.703,1.949 3.625,3.516 0.91,1.57 1.371,3.468 1.371,5.707 0,0.804 -0.074,1.718 -0.227,2.742 -0.113,0.668 -0.273,1.148 -0.48,1.441 -0.207,0.293 -0.453,0.465 -0.727,0.52 -0.277,0.051 -0.707,0.086 -1.273,0.086 h -17.695 c 0.027,1.203 0.273,2.277 0.738,3.211 0.461,0.937 1.133,1.668 2.008,2.195 0.871,0.527 1.91,0.793 3.105,0.793 2.512,0 4.824,-0.852 6.93,-2.563 z m -3.188,-13.941 c -1.089,0 -2.171,0.242 -3.238,0.715 -1.058,0.476 -2.023,1.137 -2.902,1.969 -0.875,0.832 -1.602,1.765 -2.188,2.812 h 14.473 c -0.055,-1.047 -0.34,-1.98 -0.852,-2.812 -0.515,-0.832 -1.226,-1.493 -2.132,-1.969 -0.914,-0.473 -1.965,-0.715 -3.161,-0.715" /></g></g></svg>